<svg xmlns="http://www.w3.org/2000/svg" width="160" height="160" viewBox="0 0 160 160" role="img" aria-label="Tonic">
<title>Tonic</title>
<defs><linearGradient id="tonicRing" gradientUnits="userSpaceOnUse" x1="20" y1="10" x2="80" y2="90"><stop offset="0" stop-color="#9FEEFF"/><stop offset=".28" stop-color="#35B8F6"/><stop offset=".62" stop-color="#1360D6"/><stop offset="1" stop-color="#0A2A7E"/></linearGradient><radialGradient id="tonicOrb" gradientUnits="userSpaceOnUse" cx="47" cy="45" r="10"><stop offset="0" stop-color="#FFFFFF"/><stop offset=".35" stop-color="#74DDFF"/><stop offset=".75" stop-color="#1272DE"/><stop offset="1" stop-color="#0A2A7E"/></radialGradient></defs>
<g transform="scale(1.6)">
<path d="M70.42 20.84A35.6 35.6 0 1 1 46.9 14.54" fill="none" stroke="#0A2A7E" stroke-opacity=".26" stroke-width="5.6" stroke-linecap="round"/>
<path d="M25.31 46.09A25 25 0 1 1 30.57 65.73" fill="none" stroke="#0A2A7E" stroke-opacity=".26" stroke-width="6.2" stroke-linecap="round"/>
<path d="M53.73 63.91A14.4 14.4 0 1 1 63.91 53.73" fill="none" stroke="#0A2A7E" stroke-opacity=".26" stroke-width="6.8" stroke-linecap="round"/>
<circle cx="50" cy="50" r="7.2" fill="#0A2A7E" fill-opacity=".26"/>
<path d="M70.42 20.84A35.6 35.6 0 1 1 46.9 14.54" fill="none" stroke="url(#tonicRing)" stroke-width="3.8" stroke-linecap="round"/>
<path d="M25.31 46.09A25 25 0 1 1 30.57 65.73" fill="none" stroke="url(#tonicRing)" stroke-width="4.4" stroke-linecap="round"/>
<path d="M53.73 63.91A14.4 14.4 0 1 1 63.91 53.73" fill="none" stroke="url(#tonicRing)" stroke-width="5" stroke-linecap="round"/>
<circle cx="50" cy="50" r="6.25" fill="url(#tonicOrb)"/>
<path d="M17.49 38.17A34.6 34.6 0 0 1 43.99 15.93" fill="none" stroke="#FFFFFF" stroke-opacity=".5" stroke-width="1.2" stroke-linecap="round"/>
<path d="M30.18 36.12A24.2 24.2 0 0 1 56.26 26.62" fill="none" stroke="#FFFFFF" stroke-opacity=".5" stroke-width="1.3" stroke-linecap="round"/>
<path d="M38.14 43.15A13.7 13.7 0 0 1 56.85 38.14" fill="none" stroke="#FFFFFF" stroke-opacity=".55" stroke-width="1.4" stroke-linecap="round"/>
<ellipse cx="47.6" cy="46.4" rx="3.5" ry="2.4" fill="#FFFFFF" fill-opacity=".8" transform="rotate(-30 47.6 46.4)"/>
</g>
</svg>
